<?xml version="1.0" encoding="UTF-8" standalone="no"?>
<svg width="68px" height="76px" viewBox="0 0 68 76" version="1.1" xmlns="http://www.w3.org/2000/svg" xmlns:xlink="http://www.w3.org/1999/xlink" xmlns:sketch="http://www.bohemiancoding.com/sketch/ns">
    <!-- Generator: Sketch 3.3.3 (12072) - http://www.bohemiancoding.com/sketch -->
    <title>thumb22</title>
    <desc>Created with Sketch.</desc>
    <defs>
        <path id="path-1" d="M0.155555556,0.514814815 L70,0.514814815 L70,78.2148148 L0.155555556,78.2148148 L0.155555556,0.514814815 Z"></path>
    </defs>
    <g id="Shopify-Redesign" stroke="none" stroke-width="1" fill="none" fill-rule="evenodd" sketch:type="MSPage">
        <g id="Desktop-HD" sketch:type="MSArtboardGroup" transform="translate(-1110.000000, -1122.000000)">
            <g id="Content-1---Process" sketch:type="MSLayerGroup" transform="translate(140.000000, 894.000000)">
                <g id="thumb22" transform="translate(970.000000, 228.000000)">
                    <mask id="mask-2" sketch:name="Clip 2" fill="white">
                        <use xlink:href="#path-1"></use>
                    </mask>
                    <g id="Clip-2"></g>
                    <path d="M64.2781481,37.2751852 C61.5740741,34.6722222 57.7551852,34.3688889 55.1133333,34.3688889 C53.7548148,34.3688889 52.4481481,34.4596296 51.2140741,34.552963 C51.112963,34.552963 50.9314815,34.5011111 50.7681481,34.4492593 C50.5037037,34.3688889 50.19,34.2677778 49.8477778,34.247037 C48.58,33.9851852 47.6077778,33.7207407 46.6874074,32.9922222 C44.8233333,31.3303704 43.1822222,29.2562963 41.592963,27.2496296 L40.4496296,25.8211111 C38.372963,23.3114815 35.8192593,19.9774074 34.5540741,16.3944444 C33.8851852,14.6003704 33.612963,12.7077778 33.7037037,10.4185185 C33.7140741,9.98296296 33.7451852,9.55777778 33.7633333,9.15333333 C33.8644444,7.48111111 33.9577778,5.91259259 33.4107407,4.29222222 C32.6407407,1.89148148 30.7455556,0.514814815 28.2151852,0.514814815 C26.5144444,0.514814815 24.7203704,1.16296296 23.3644444,2.24666667 C19.95,4.6162963 17.7644444,9.11185185 17.4896296,14.2762963 C17.347037,17.1825926 18.2285185,19.6740741 19.0892593,22.0851852 C19.8281481,24.1825926 20.5385185,26.1659259 20.5281481,28.3022222 C20.5177778,31.5533333 17.7125926,32.4555556 13.7433333,33.3759259 C13.3077778,33.477037 12.8825926,33.5807407 12.5481481,33.6714815 C12.0918519,33.7518519 11.6251852,33.8218519 11.1611111,33.9048148 C8.18222222,34.4 4.80925926,34.9677778 2.36962963,37.2959259 C0.526296296,39.1185185 -0.355185185,42.1466667 0.132222222,44.9933333 C0.487407407,47.0492593 1.49851852,48.7396296 2.95814815,49.742963 C2.03518519,53.2377778 3.7462963,57.2977778 7.07,59.4755556 C6.74592593,61.0544444 7.04925926,62.8381481 7.93074074,64.5077778 C8.91333333,66.3718519 10.4714815,67.8392593 12.2240741,68.5288889 C12.2240741,71.7281481 14.4122222,74.5151852 17.8448148,75.4951852 C18.8066667,75.6896296 19.8385185,75.7803704 21.012963,75.7803704 C22.7551852,75.7803704 24.5077778,75.5781481 26.1903704,75.3862963 C26.7555556,75.3240741 27.312963,75.2644444 27.9611111,75.1918519 C28.9540741,74.9896296 29.9859259,74.8574074 31.0307407,74.7277778 C33.1877778,74.4425926 35.4044444,74.16 37.4111111,73.2992593 C39.0418519,72.5707407 40.4781481,71.5259259 41.8574074,70.5148148 C42.3111111,70.1803704 42.757037,69.8562963 43.2133333,69.5425926 C43.6592593,69.2185185 44.1155556,68.8011111 44.5796296,68.3577778 C45.3807407,67.6085185 46.2,66.8281481 47.0011111,66.6751852 C47.7088889,66.542963 48.3881481,66.4625926 49.0466667,66.3925926 C49.7751852,66.3122222 50.4855556,66.2396296 51.182963,66.097037 L51.5277778,66.097037 C52.2666667,66.097037 53.0677778,66.1385185 53.9077778,66.1903704 C54.8592593,66.25 55.8522222,66.3122222 56.8348148,66.3122222 C59.2459259,66.3122222 62.2740741,65.9959259 64.2262963,63.5977778 C67.1040741,60.1833333 67.5188889,54.9774074 67.5396296,49.8751852 L67.5396296,49.6522222 C67.5785185,45.9033333 67.6096296,40.2333333 64.2781481,37.2751852 L64.2781481,37.2751852 Z M53.3296296,57.792963 C52.5907407,60.497037 51.1337037,61.6118519 48.0537037,61.8944444 C47.0918519,61.8944444 45.9174074,61.8944444 44.812963,62.5737037 C43.6385185,62.8977778 42.6974074,63.7896296 41.847037,64.5803704 C41.522963,64.8940741 41.1988889,65.1974074 40.892963,65.4307407 C40.4885185,65.7340741 40.0737037,66.0477778 39.6485185,66.3614815 C38.372963,67.3337037 37.0455556,68.337037 35.8711111,68.9125926 C35.152963,69.0966667 34.3311111,69.2781481 33.5222222,69.4596296 L31.9407407,69.8148148 C28.6403704,70.4137037 25.2181481,70.7274074 21.9955556,71.01 C20.9118519,71.01 19.7892593,71.01 18.6640741,70.717037 C18.0262963,70.6340741 17.5596296,70.3411111 17.2666667,69.8562963 C16.8622222,69.1874074 16.8207407,68.1840741 17.1551852,67.3025926 C17.4196296,66.6959259 17.3677778,66.0477778 17.022963,65.5111111 C16.4862963,64.6918519 15.4233333,64.3262963 14.6040741,64.3262963 L14.4925926,64.3262963 L14.3914815,64.3574074 C14.2903704,64.3755556 14.1996296,64.3859259 14.0985185,64.3859259 C13.4296296,64.3859259 12.74,63.8285185 12.2551852,62.8977778 C11.6459259,61.7233333 11.5655556,60.2948148 12.0114815,59.657037 C12.517037,59.0607407 12.5974074,58.1896296 12.2344444,57.3885185 C11.9,56.6807407 11.3011111,56.2244444 10.6425926,56.1440741 C9.07407407,55.6074074 8.06037037,54.6248148 7.62481481,53.2455556 C7.31111111,52.0814815 7.39407407,50.7462963 7.93074074,50.1085185 C8.44666667,49.2555556 8.56851852,48.2651852 8.25481481,47.4640741 C7.99037037,46.8159259 7.4537037,46.3388889 6.65259259,46.1159259 C5.16444444,45.8437037 4.71851852,44.6381481 4.60703704,43.6555556 C4.36592593,41.8537037 5.74259259,40.4874074 7.03888889,39.8392593 C9.03259259,38.7244444 11.4644444,38.3303704 13.8237037,37.9440741 C15.0888889,37.7314815 16.3851852,37.5188889 17.6218519,37.2051852 C21.8555556,36.1111111 24.8837037,32.8003704 25.1766667,28.9814815 C25.3788889,26.1762963 24.4974074,23.5940741 23.6366667,21.1025926 C22.9081481,18.9974074 22.2288889,17.0011111 22.1692593,14.9037037 C22.107037,12.8788889 22.6955556,10.6414815 23.8207407,8.50518519 C24.9018519,6.82259259 26.7166667,5.01037037 28.152963,5.01037037 C28.2359259,5.01037037 28.3059259,5.02074074 28.3655556,5.02074074 C29.2574074,5.15296296 29.2262963,6.84333333 29.1251852,8.41185185 L29.107037,8.80851852 C28.9748148,11.3907407 28.922963,13.5685185 29.5114815,16.0885185 C30.3307407,19.5133333 32.2855556,22.2977778 34.16,24.9811111 C34.5644444,25.5696296 34.9792593,26.1555556 35.3940741,26.7648148 C37.1674074,29.3055556 39.4151852,32.0796296 41.8574074,34.7344444 C42.3214815,35.2918519 42.8296296,35.9088889 43.4466667,36.3237037 C43.6074074,36.627037 43.8303704,36.7903704 44.042963,36.8707407 C45.5622222,38.0348148 47.192963,38.7140741 49.2488889,39.0485185 C50.7474074,39.3311111 52.0333333,39.5644444 52.6814815,40.6688889 C53.9881481,42.9685185 54.0192593,46.1366667 54.0503704,48.68 L54.0607407,49.2762963 C54.0996296,51.97 54.0788889,55.0707407 53.3296296,57.792963 L53.3296296,57.792963 Z M62.8807407,48.8718519 L62.8703704,49.8648148 C62.8911111,53.7744444 62.6474074,57.7748148 60.7444444,60.5385185 C60.0962963,61.5211111 58.8207407,61.5911111 57.0681481,61.5911111 L56.8840741,61.5911111 C57.8666667,59.587037 58.252963,57.2562963 58.4940741,55.1407407 C58.9011111,51.3011111 58.8596296,47.5340741 58.3644444,43.9588889 C58.1518519,42.3903704 57.8174074,40.6792593 57.0681481,39.1496296 C58.4862963,39.3103704 59.9433333,39.6966667 61.0477778,40.6377778 C62.93,42.2192593 62.9014815,46.2196296 62.8807407,48.8718519 L62.8807407,48.8718519 Z" id="Fill-1" fill="#6AA9D0" sketch:type="MSShapeGroup" mask="url(#mask-2)"></path>
                </g>
            </g>
        </g>
    </g>
</svg>