<?xml version="1.0" encoding="UTF-8" standalone="no"?>
<svg width="70px" height="69px" viewBox="0 0 70 69" version="1.1" xmlns="http://www.w3.org/2000/svg" xmlns:xlink="http://www.w3.org/1999/xlink" xmlns:sketch="http://www.bohemiancoding.com/sketch/ns">
    <!-- Generator: Sketch 3.3.3 (12072) - http://www.bohemiancoding.com/sketch -->
    <title>increasing5</title>
    <desc>Created with Sketch.</desc>
    <defs>
        <path id="path-1" d="M0.161538462,0.0769230769 L70,0.0769230769 L70,70.0769231 L0.161538462,70.0769231 L0.161538462,0.0769230769 Z"></path>
    </defs>
    <g id="Shopify-Redesign" stroke="none" stroke-width="1" fill="none" fill-rule="evenodd" sketch:type="MSPage">
        <g id="Desktop-HD" sketch:type="MSArtboardGroup" transform="translate(-685.000000, -1126.000000)">
            <g id="Content-1---Process" sketch:type="MSLayerGroup" transform="translate(140.000000, 894.000000)">
                <g id="increasing5" transform="translate(545.500000, 232.000000)">
                    <mask id="mask-2" sketch:name="Clip 2" fill="white">
                        <use xlink:href="#path-1"></use>
                    </mask>
                    <g id="Clip-2"></g>
                    <path d="M68.5703846,3.42076923 C69.2219231,2.43269231 68.9473077,1.09730769 67.9592308,0.435 C66.9603846,-0.219230769 65.6357692,0.0446153846 64.9734615,1.04346154 L57.0015385,13.1076923 C56.6757692,13.0538462 56.3392308,13.0026923 56.0026923,13.0026923 C52.4380769,13.0026923 49.5330769,15.905 49.5330769,19.4588462 C49.5330769,20.1426923 49.6703846,20.7942308 49.8696154,21.4161538 L42.1723077,31.2269231 C41.1842308,30.6076923 40.0265385,30.2280769 38.7638462,30.2280769 C35.2934615,30.2280769 32.4746154,32.9930769 32.34,36.4338462 L20.16,43.52 C18.9834615,41.9961538 17.1526923,40.9973077 15.0823077,40.9973077 C11.515,40.9973077 8.61269231,43.8996154 8.61269231,47.4642308 C8.61269231,48.8642308 9.07576923,50.1565385 9.83230769,51.2092308 L0.358076923,65.6588462 C-0.293461538,66.6576923 -0.0215384615,67.9930769 0.966538462,68.6446154 C1.33538462,68.8869231 1.74461538,69.0026923 2.15653846,69.0026923 C2.85115385,69.0026923 3.54307692,68.6553846 3.955,68.0253846 L13.3780769,53.67 C13.9246154,53.8180769 14.4926923,53.9230769 15.0823077,53.9230769 C18.5526923,53.9230769 21.3715385,51.1661538 21.5169231,47.7173077 L33.6861538,40.6284615 C34.8626923,42.155 36.6934615,43.1538462 38.7638462,43.1538462 C42.3311538,43.1538462 45.2334615,40.2515385 45.2334615,36.695 C45.2334615,36.0111538 45.0961538,35.3596154 44.8969231,34.7403846 L52.5942308,24.9269231 C53.5823077,25.5488462 54.74,25.9257692 56.0026923,25.9257692 C59.5565385,25.9257692 62.4588462,23.0234615 62.4588462,19.4588462 C62.4588462,17.8084615 61.8180769,16.3142308 60.7976923,15.1780769 L68.5703846,3.42076923 Z M15.0823077,49.61 C13.8923077,49.61 12.9257692,48.6542308 12.9257692,47.4642308 C12.9257692,46.2769231 13.8923077,45.3103846 15.0823077,45.3103846 C16.2696154,45.3103846 17.2253846,46.2769231 17.2253846,47.4642308 C17.2253846,48.6542308 16.2696154,49.61 15.0823077,49.61 L15.0823077,49.61 Z M38.7638462,38.8407692 C37.5765385,38.8407692 36.6207692,37.885 36.6207692,36.695 C36.6207692,35.5076923 37.5765385,34.5411538 38.7638462,34.5411538 C39.9538462,34.5411538 40.9203846,35.5076923 40.9203846,36.695 C40.9203846,37.885 39.9538462,38.8407692 38.7638462,38.8407692 L38.7638462,38.8407692 Z M56.0026923,21.6153846 C54.8126923,21.6153846 53.8461538,20.6461538 53.8461538,19.4588462 C53.8461538,18.2715385 54.8126923,17.3023077 56.0026923,17.3023077 C57.19,17.3023077 58.1484615,18.2715385 58.1484615,19.4588462 C58.1484615,20.6461538 57.19,21.6153846 56.0026923,21.6153846 L56.0026923,21.6153846 Z M12.9257692,64.6923077 C11.7357692,64.6923077 10.7692308,65.6588462 10.7692308,66.8488462 C10.7692308,68.0361538 11.7357692,69.0026923 12.9257692,69.0026923 C14.1130769,69.0026923 15.0823077,68.0361538 15.0823077,66.8488462 C15.0823077,65.6588462 14.1130769,64.6923077 12.9257692,64.6923077 L12.9257692,64.6923077 Z M23.695,64.6923077 C22.505,64.6923077 21.5384615,65.6588462 21.5384615,66.8488462 C21.5384615,68.0361538 22.505,69.0026923 23.695,69.0026923 C24.8823077,69.0026923 25.8515385,68.0361538 25.8515385,66.8488462 C25.8515385,65.6588462 24.8823077,64.6923077 23.695,64.6923077 L23.695,64.6923077 Z M34.4642308,64.6923077 C33.2742308,64.6923077 32.3076923,65.6588462 32.3076923,66.8488462 C32.3076923,68.0361538 33.2742308,69.0026923 34.4642308,69.0026923 C35.6515385,69.0026923 36.6207692,68.0361538 36.6207692,66.8488462 C36.6207692,65.6588462 35.6515385,64.6923077 34.4642308,64.6923077 L34.4642308,64.6923077 Z M45.2334615,64.6923077 C44.0434615,64.6923077 43.0769231,65.6588462 43.0769231,66.8488462 C43.0769231,68.0361538 44.0434615,69.0026923 45.2334615,69.0026923 C46.4207692,69.0026923 47.39,68.0361538 47.39,66.8488462 C47.39,65.6588462 46.4207692,64.6923077 45.2334615,64.6923077 L45.2334615,64.6923077 Z M56.0026923,64.6923077 C54.8126923,64.6923077 53.8461538,65.6588462 53.8461538,66.8488462 C53.8461538,68.0361538 54.8126923,69.0026923 56.0026923,69.0026923 C57.19,69.0026923 58.1592308,68.0361538 58.1592308,66.8488462 C58.1592308,65.6588462 57.19,64.6923077 56.0026923,64.6923077 L56.0026923,64.6923077 Z M66.7719231,64.6923077 C65.5819231,64.6923077 64.6153846,65.6588462 64.6153846,66.8488462 C64.6153846,68.0361538 65.5819231,69.0026923 66.7719231,69.0026923 C67.9592308,69.0026923 68.9284615,68.0361538 68.9284615,66.8488462 C68.9284615,65.6588462 67.9592308,64.6923077 66.7719231,64.6923077 L66.7719231,64.6923077 Z M2.15653846,58.2334615 C3.34384615,58.2334615 4.31307692,57.2669231 4.31307692,56.0796154 C4.31307692,54.8896154 3.34384615,53.9230769 2.15653846,53.9230769 C0.966538462,53.9230769 0,54.8896154 0,56.0796154 C0,57.2669231 0.966538462,58.2334615 2.15653846,58.2334615 L2.15653846,58.2334615 Z M2.15653846,47.4642308 C3.34384615,47.4642308 4.31307692,46.4976923 4.31307692,45.3103846 C4.31307692,44.1203846 3.34384615,43.1538462 2.15653846,43.1538462 C0.966538462,43.1538462 0,44.1203846 0,45.3103846 C0,46.4976923 0.966538462,47.4642308 2.15653846,47.4642308 L2.15653846,47.4642308 Z M2.15653846,36.695 C3.34384615,36.695 4.31307692,35.7284615 4.31307692,34.5411538 C4.31307692,33.3511538 3.34384615,32.3846154 2.15653846,32.3846154 C0.966538462,32.3846154 0,33.3511538 0,34.5411538 C0,35.7284615 0.966538462,36.695 2.15653846,36.695 L2.15653846,36.695 Z M2.15653846,25.9257692 C3.34384615,25.9257692 4.31307692,24.9592308 4.31307692,23.7719231 C4.31307692,22.5819231 3.34384615,21.6153846 2.15653846,21.6153846 C0.966538462,21.6153846 0,22.5819231 0,23.7719231 C0,24.9592308 0.966538462,25.9257692 2.15653846,25.9257692 L2.15653846,25.9257692 Z M2.15653846,15.1565385 C3.34384615,15.1565385 4.31307692,14.19 4.31307692,13.0026923 C4.31307692,11.8126923 3.34384615,10.8461538 2.15653846,10.8461538 C0.966538462,10.8461538 0,11.8126923 0,13.0026923 C0,14.19 0.966538462,15.1565385 2.15653846,15.1565385 L2.15653846,15.1565385 Z M2.15653846,4.38730769 C3.34384615,4.38730769 4.31307692,3.42076923 4.31307692,2.23346154 C4.31307692,1.04346154 3.34384615,0.0769230769 2.15653846,0.0769230769 C0.966538462,0.0769230769 0,1.04346154 0,2.23346154 C0,3.42076923 0.966538462,4.38730769 2.15653846,4.38730769 L2.15653846,4.38730769 Z" id="Fill-1" fill="#6AA9D0" sketch:type="MSShapeGroup" mask="url(#mask-2)"></path>
                </g>
            </g>
        </g>
    </g>
</svg>