<?xml version="1.0" encoding="UTF-8" standalone="no"?>
<svg width="553px" height="256px" viewBox="0 0 553 256" version="1.1" xmlns="http://www.w3.org/2000/svg" xmlns:xlink="http://www.w3.org/1999/xlink" xmlns:sketch="http://www.bohemiancoding.com/sketch/ns">
    <!-- Generator: Sketch 3.3.3 (12072) - http://www.bohemiancoding.com/sketch -->
    <title>Group</title>
    <desc>Created with Sketch.</desc>
    <defs></defs>
    <g id="Shopify-Redesign" stroke="none" stroke-width="1" fill="none" fill-rule="evenodd" sketch:type="MSPage">
        <g id="Product-page" sketch:type="MSArtboardGroup" transform="translate(-644.000000, -976.000000)">
            <g id="Group" sketch:type="MSLayerGroup" transform="translate(644.000000, 976.500000)">
                <path d="M136.053935,243.5 L40.3508105,243.5 C18.5441698,243.5 0.702372972,225.569585 0.702372972,203.654634 L0.702372972,38.7772551 C0.702372972,31.6783679 13.017998,18.5555026 30.1078417,3.4417429 C35.433037,-1.26779621 45.9603808,0.782637183 50.7984016,2.07005471 C52.6687141,2.56743481 54.5918912,2.82482671 56.5269172,2.82482671 L136.053935,2.82482671 C157.860576,2.82482671 175.702373,20.7552416 175.702373,42.6701932 L175.702373,203.654634 C175.702373,225.569585 157.860576,243.5 136.053935,243.5 L136.053935,243.5 Z M176.157311,192.5 C176.157311,192.5 178.668522,193.416077 178.896814,195.019212 C179.125106,196.622347 180.266565,221.127408 179.353398,225.936812 C178.44023,230.746217 178.896814,229.143082 176.157311,229.372101 C173.417808,229.601121 166.702373,229.452716 166.702373,229.452716 L176.157311,192.5 Z M179.702373,217.5 L213.035436,217.5 C213.035436,217.5 216.460066,212.423077 213.492053,205.5 L179.702373,205.5 L179.702373,217.5 Z M214.702373,208.908737 L226.205777,207.5 C226.205777,207.5 229.446043,209.157895 229.67749,211.763158 C229.908938,214.368421 228.520252,216.5 225.742882,216.5 C222.965512,216.5 214.702373,215.315789 214.702373,215.315789 L214.702373,208.908737 Z M124.517291,243.5 L124.517291,251.457447 C124.517291,251.457447 125.674054,254.5 122.203766,254.5 C118.733478,254.5 90.8555006,250.287234 90.8555006,250.287234 C90.8555006,250.287234 88.1371085,248.882979 87.905756,247.010638 C87.6744035,245.138298 87.7035539,243.5 87.7035539,243.5 L124.517291,243.5 Z M3.70237297,172.5 L3.70237297,201.299503 C3.70237297,223.164735 21.839727,241.5 43.6955378,241.5 L133.622722,241.5 C155.478532,241.5 172.702373,223.164735 172.702373,201.299503 L172.702373,172.5 L3.70237297,172.5 L3.70237297,172.5 Z" id="Imported-Layers" stroke="#929292" sketch:type="MSShapeGroup"></path>
                <g transform="translate(258.702373, 0.500000)" stroke="#929292" sketch:type="MSShapeGroup">
                    <path d="M29.106383,14.2805965 C29.106383,15.3465106 22.5906703,16.2105263 14.5531915,16.2105263 C6.51571264,16.2105263 0,15.3465106 0,14.2805965 C0,13.2148929 6.51571264,12.3508772 14.5531915,12.3508772 C22.5906703,12.3508772 29.106383,13.2148929 29.106383,14.2805965 L29.106383,14.2805965 Z M26.0425532,14.2807018 C26.0425532,14.9203228 21.0699829,15.4385965 14.9361702,15.4385965 C8.80235748,15.4385965 3.82978723,14.9203228 3.82978723,14.2807018 C3.82978723,13.6413123 8.80235748,13.122807 14.9361702,13.122807 C21.0699829,13.122807 26.0425532,13.6413123 26.0425532,14.2807018 L26.0425532,14.2807018 Z M3.82978723,15.4385965 L3.82978723,42.0456656 C3.82978723,42.0456656 12.8962223,46.442918 26.0425532,42.0456656 L26.0425532,15.4385965 L3.82978723,15.4385965 Z M3.82978723,14.6666667 L15.7354409,1.54385965 C15.7354409,1.54385965 26.8435715,2.71277685 36,1.54385965 L25.6920943,14.6666667 L3.82978723,14.6666667 Z M15.3191489,1.54385965 C15.3191489,1.54385965 23.8752511,-1.92982456 35.2340426,1.54385965 L15.3191489,1.54385965 Z" id="Imported-Layers"></path>
                    <path d="M90.106383,14.2805965 C90.106383,15.3465106 83.5906703,16.2105263 75.5531915,16.2105263 C67.5157126,16.2105263 61,15.3465106 61,14.2805965 C61,13.2148929 67.5157126,12.3508772 75.5531915,12.3508772 C83.5906703,12.3508772 90.106383,13.2148929 90.106383,14.2805965 L90.106383,14.2805965 Z M87.0425532,14.2807018 C87.0425532,14.9203228 82.0699829,15.4385965 75.9361702,15.4385965 C69.8023575,15.4385965 64.8297872,14.9203228 64.8297872,14.2807018 C64.8297872,13.6413123 69.8023575,13.122807 75.9361702,13.122807 C82.0699829,13.122807 87.0425532,13.6413123 87.0425532,14.2807018 L87.0425532,14.2807018 Z M64.8297872,15.4385965 L64.8297872,42.0456656 C64.8297872,42.0456656 73.8962223,46.442918 87.0425532,42.0456656 L87.0425532,15.4385965 L64.8297872,15.4385965 Z M64.8297872,14.6666667 L76.7354409,1.54385965 C76.7354409,1.54385965 87.8435715,2.71277685 97,1.54385965 L86.6920943,14.6666667 L64.8297872,14.6666667 Z M76.3191489,1.54385965 C76.3191489,1.54385965 84.8752511,-1.92982456 96.2340426,1.54385965 L76.3191489,1.54385965 Z" id="Imported-Layers-Copy-4"></path>
                    <path d="M29.106383,74.2805965 C29.106383,75.3465106 22.5906703,76.2105263 14.5531915,76.2105263 C6.51571264,76.2105263 0,75.3465106 0,74.2805965 C0,73.2148929 6.51571264,72.3508772 14.5531915,72.3508772 C22.5906703,72.3508772 29.106383,73.2148929 29.106383,74.2805965 L29.106383,74.2805965 Z M26.0425532,74.2807018 C26.0425532,74.9203228 21.0699829,75.4385965 14.9361702,75.4385965 C8.80235748,75.4385965 3.82978723,74.9203228 3.82978723,74.2807018 C3.82978723,73.6413123 8.80235748,73.122807 14.9361702,73.122807 C21.0699829,73.122807 26.0425532,73.6413123 26.0425532,74.2807018 L26.0425532,74.2807018 Z M3.82978723,75.4385965 L3.82978723,102.045666 C3.82978723,102.045666 12.8962223,106.442918 26.0425532,102.045666 L26.0425532,75.4385965 L3.82978723,75.4385965 Z M3.82978723,74.6666667 L15.7354409,61.5438596 C15.7354409,61.5438596 26.8435715,62.7127769 36,61.5438596 L25.6920943,74.6666667 L3.82978723,74.6666667 Z M15.3191489,61.5438596 C15.3191489,61.5438596 23.8752511,58.0701754 35.2340426,61.5438596 L15.3191489,61.5438596 Z" id="Imported-Layers-Copy"></path>
                    <path d="M90.106383,74.2805965 C90.106383,75.3465106 83.5906703,76.2105263 75.5531915,76.2105263 C67.5157126,76.2105263 61,75.3465106 61,74.2805965 C61,73.2148929 67.5157126,72.3508772 75.5531915,72.3508772 C83.5906703,72.3508772 90.106383,73.2148929 90.106383,74.2805965 L90.106383,74.2805965 Z M87.0425532,74.2807018 C87.0425532,74.9203228 82.0699829,75.4385965 75.9361702,75.4385965 C69.8023575,75.4385965 64.8297872,74.9203228 64.8297872,74.2807018 C64.8297872,73.6413123 69.8023575,73.122807 75.9361702,73.122807 C82.0699829,73.122807 87.0425532,73.6413123 87.0425532,74.2807018 L87.0425532,74.2807018 Z M64.8297872,75.4385965 L64.8297872,102.045666 C64.8297872,102.045666 73.8962223,106.442918 87.0425532,102.045666 L87.0425532,75.4385965 L64.8297872,75.4385965 Z M64.8297872,74.6666667 L76.7354409,61.5438596 C76.7354409,61.5438596 87.8435715,62.7127769 97,61.5438596 L86.6920943,74.6666667 L64.8297872,74.6666667 Z M76.3191489,61.5438596 C76.3191489,61.5438596 84.8752511,58.0701754 96.2340426,61.5438596 L76.3191489,61.5438596 Z" id="Imported-Layers-Copy-5"></path>
                    <path d="M29.106383,136.280596 C29.106383,137.346511 22.5906703,138.210526 14.5531915,138.210526 C6.51571264,138.210526 0,137.346511 0,136.280596 C0,135.214893 6.51571264,134.350877 14.5531915,134.350877 C22.5906703,134.350877 29.106383,135.214893 29.106383,136.280596 L29.106383,136.280596 Z M26.0425532,136.280702 C26.0425532,136.920323 21.0699829,137.438596 14.9361702,137.438596 C8.80235748,137.438596 3.82978723,136.920323 3.82978723,136.280702 C3.82978723,135.641312 8.80235748,135.122807 14.9361702,135.122807 C21.0699829,135.122807 26.0425532,135.641312 26.0425532,136.280702 L26.0425532,136.280702 Z M3.82978723,137.438596 L3.82978723,164.045666 C3.82978723,164.045666 12.8962223,168.442918 26.0425532,164.045666 L26.0425532,137.438596 L3.82978723,137.438596 Z M3.82978723,136.666667 L15.7354409,123.54386 C15.7354409,123.54386 26.8435715,124.712777 36,123.54386 L25.6920943,136.666667 L3.82978723,136.666667 Z M15.3191489,123.54386 C15.3191489,123.54386 23.8752511,120.070175 35.2340426,123.54386 L15.3191489,123.54386 Z" id="Imported-Layers-Copy-2"></path>
                    <path d="M90.106383,136.280596 C90.106383,137.346511 83.5906703,138.210526 75.5531915,138.210526 C67.5157126,138.210526 61,137.346511 61,136.280596 C61,135.214893 67.5157126,134.350877 75.5531915,134.350877 C83.5906703,134.350877 90.106383,135.214893 90.106383,136.280596 L90.106383,136.280596 Z M87.0425532,136.280702 C87.0425532,136.920323 82.0699829,137.438596 75.9361702,137.438596 C69.8023575,137.438596 64.8297872,136.920323 64.8297872,136.280702 C64.8297872,135.641312 69.8023575,135.122807 75.9361702,135.122807 C82.0699829,135.122807 87.0425532,135.641312 87.0425532,136.280702 L87.0425532,136.280702 Z M64.8297872,137.438596 L64.8297872,164.045666 C64.8297872,164.045666 73.8962223,168.442918 87.0425532,164.045666 L87.0425532,137.438596 L64.8297872,137.438596 Z M64.8297872,136.666667 L76.7354409,123.54386 C76.7354409,123.54386 87.8435715,124.712777 97,123.54386 L86.6920943,136.666667 L64.8297872,136.666667 Z M76.3191489,123.54386 C76.3191489,123.54386 84.8752511,120.070175 96.2340426,123.54386 L76.3191489,123.54386 Z" id="Imported-Layers-Copy-6"></path>
                    <path d="M29.106383,197.280596 C29.106383,198.346511 22.5906703,199.210526 14.5531915,199.210526 C6.51571264,199.210526 0,198.346511 0,197.280596 C0,196.214893 6.51571264,195.350877 14.5531915,195.350877 C22.5906703,195.350877 29.106383,196.214893 29.106383,197.280596 L29.106383,197.280596 Z M26.0425532,197.280702 C26.0425532,197.920323 21.0699829,198.438596 14.9361702,198.438596 C8.80235748,198.438596 3.82978723,197.920323 3.82978723,197.280702 C3.82978723,196.641312 8.80235748,196.122807 14.9361702,196.122807 C21.0699829,196.122807 26.0425532,196.641312 26.0425532,197.280702 L26.0425532,197.280702 Z M3.82978723,198.438596 L3.82978723,225.045666 C3.82978723,225.045666 12.8962223,229.442918 26.0425532,225.045666 L26.0425532,198.438596 L3.82978723,198.438596 Z M3.82978723,197.666667 L15.7354409,184.54386 C15.7354409,184.54386 26.8435715,185.712777 36,184.54386 L25.6920943,197.666667 L3.82978723,197.666667 Z M15.3191489,184.54386 C15.3191489,184.54386 23.8752511,181.070175 35.2340426,184.54386 L15.3191489,184.54386 Z" id="Imported-Layers-Copy-3"></path>
                    <path d="M90.106383,197.280596 C90.106383,198.346511 83.5906703,199.210526 75.5531915,199.210526 C67.5157126,199.210526 61,198.346511 61,197.280596 C61,196.214893 67.5157126,195.350877 75.5531915,195.350877 C83.5906703,195.350877 90.106383,196.214893 90.106383,197.280596 L90.106383,197.280596 Z M87.0425532,197.280702 C87.0425532,197.920323 82.0699829,198.438596 75.9361702,198.438596 C69.8023575,198.438596 64.8297872,197.920323 64.8297872,197.280702 C64.8297872,196.641312 69.8023575,196.122807 75.9361702,196.122807 C82.0699829,196.122807 87.0425532,196.641312 87.0425532,197.280702 L87.0425532,197.280702 Z M64.8297872,198.438596 L64.8297872,225.045666 C64.8297872,225.045666 73.8962223,229.442918 87.0425532,225.045666 L87.0425532,198.438596 L64.8297872,198.438596 Z M64.8297872,197.666667 L76.7354409,184.54386 C76.7354409,184.54386 87.8435715,185.712777 97,184.54386 L86.6920943,197.666667 L64.8297872,197.666667 Z M76.3191489,184.54386 C76.3191489,184.54386 84.8752511,181.070175 96.2340426,184.54386 L76.3191489,184.54386 Z" id="Imported-Layers-Copy-7"></path>
                </g>
                <g id="Imported-Layers" transform="translate(401.702373, 0.500000)" sketch:type="MSShapeGroup">
                    <path d="M70.8310833,226 L45.1695489,226 C33.4967087,226 24,216.44296 24,204.693762 L24,97 L27.8490089,97 L27.8490089,204.693762 C27.8490089,214.305527 35.6191007,222.126023 45.1695489,222.126023 L70.8310833,222.126023 C80.3808993,222.126023 88.1509911,214.305527 88.1509911,204.693762 L88.1509911,97 L92,97 L92,204.693762 C92,216.44296 82.5032913,226 70.8310833,226" id="Fill-1" fill="#C8C8C8"></path>
                    <path d="M138,129 L134.062911,129 L134.062911,19.1239938 C134.062911,10.4961215 126.115009,3.47719363 116.346009,3.47719363 L109.653991,3.47719363 C99.8849915,3.47719363 91.9370893,10.4961215 91.9370893,19.1239938 L91.9370893,129 L88,129 L88,19.1239938 C88,8.57875302 97.7140307,0 109.653991,0 L116.346009,0 C128.285969,0 138,8.57875302 138,19.1239938 L138,129" id="Fill-2" fill="#C8C8C8"></path>
                    <path d="M6,49 L43,49 L43,19 L6,19 L6,49 Z M10.5630211,25.3179348 L18.546903,25.3179348 L18.546903,31.5349379 L10.5630211,31.5349379 L10.5630211,25.3179348 Z M30.8383966,25.3179348 L38.8222785,25.3179348 L38.8222785,31.5349379 L30.8383966,31.5349379 L30.8383966,25.3179348 Z" id="Fill-3" fill="#C8C8C8"></path>
                    <path d="M25.5993598,48 L25,48 L25,37.0202424 L26.4006402,37.0202424 L26.4006402,29.9823323 L25,29.9823323 L25,19 L25.5993598,19 L25.5993598,29.1378346 L27,29.1378346 L27,37.8647401 L25.5993598,37.8647401 L25.5993598,48" id="Fill-4" fill="#E6E9EE"></path>
                    <path d="M0,80.7583006 C0,84.1578082 3.47683723,86.9144582 7.76627594,86.9144582 L43.4901247,86.9144582 C47.7789256,86.9144582 51.2564006,84.1578082 51.2564006,80.7583006 L51.2564006,47 L0,47 L0,80.7583006 L0,80.7583006 Z M16.242462,86.7960705 L16.242462,91.0586622 L17.6986387,91.0586622 L17.6986387,92.9961461 L33.5583998,92.9961461 L33.5583998,91.0586622 L35.0145765,91.0586622 L35.0145765,86.7960705 L16.242462,86.7960705 L16.242462,86.7960705 Z M20.6109922,95.7502501 L30.6460463,95.7502501 L30.6460463,93.0381546 L20.6109922,93.0381546 L20.6109922,95.7502501 Z M143,132.575809 L143,129.863077 L139.602892,129.863077 L139.602892,128.409964 L131.798984,128.409964 L131.798984,129.863077 L128.401876,129.863077 L128.401876,132.575809 L129.534671,132.575809 L129.534671,133.738045 L128.401876,133.738045 L128.401876,138 L143,138 L143,133.738045 L141.867843,133.738045 L141.867843,132.575809 L143,132.575809 L143,132.575809 Z M45.6925681,56.7523414 C45.6925681,58.5714376 44.2153428,60.0461912 42.3924111,60.0461912 L8.08774465,60.0461912 C6.26545077,60.0461912 4.78758765,58.5714376 4.78758765,56.7523414 C4.78758765,54.9332452 6.26545077,53.4591281 8.08774465,53.4591281 L42.3924111,53.4591281 C44.2153428,53.4591281 45.6925681,54.9332452 45.6925681,56.7523414 L45.6925681,56.7523414 Z M45.6925681,65.9884872 C45.6925681,67.8075834 44.2153428,69.282337 42.3924111,69.282337 L8.08774465,69.282337 C6.26545077,69.282337 4.78758765,67.8075834 4.78758765,65.9884872 C4.78758765,64.169391 6.26545077,62.6946374 8.08774465,62.6946374 L42.3924111,62.6946374 C44.2153428,62.6946374 45.6925681,64.169391 45.6925681,65.9884872 L45.6925681,65.9884872 Z M45.6925681,75.224633 C45.6925681,77.0437291 44.2153428,78.5184828 42.3924111,78.5184828 L8.08774465,78.5184828 C6.26545077,78.5184828 4.78758765,77.0437291 4.78758765,75.224633 C4.78758765,73.4055368 6.26545077,71.9307832 8.08774465,71.9307832 L42.3924111,71.9307832 C44.2153428,71.9307832 45.6925681,73.4055368 45.6925681,75.224633 L45.6925681,75.224633 Z" id="Stroke-5" stroke="#929292"></path>
                    <path d="M123,165 L147,165 L147,185 L123,185 L123,165 Z" id="Fill-6" fill="#EFEFEF"></path>
                    <path d="M133.700718,165 L134,165 L134,172.571623 L133.30008,172.571623 L133.30008,177.425778 L134,177.425778 L134,185 L133.700718,185 L133.700718,178.007861 L133,178.007861 L133,171.988891 L133.700718,171.988891 L133.700718,165" id="Fill-7" fill="#E6E9EE"></path>
                    <path d="M150,142.163442 C150,139.86372 147.897393,138 145.30322,138 L123.69678,138 C121.102607,138 119,139.86372 119,142.163442 L119,165 L150,165 L150,142.163442 L150,142.163442 Z M122.365296,158.402632 C122.365296,157.172753 123.258372,156.174737 124.360959,156.174737 L145.108719,156.174737 C146.211931,156.174737 147.104382,157.172753 147.104382,158.402632 C147.104382,159.632511 146.211931,160.630528 145.108719,160.630528 L124.360959,160.630528 C123.258372,160.630528 122.365296,159.632511 122.365296,158.402632 L122.365296,158.402632 Z M122.365296,152.154318 C122.365296,150.924439 123.258372,149.926423 124.360959,149.926423 L145.108719,149.926423 C146.211931,149.926423 147.104382,150.924439 147.104382,152.154318 C147.104382,153.384827 146.211931,154.382844 145.108719,154.382844 L124.360959,154.382844 C123.258372,154.382844 122.365296,153.384827 122.365296,152.154318 L122.365296,152.154318 Z M122.365296,145.907894 C122.365296,144.676755 123.258372,143.678739 124.360959,143.678739 L145.108719,143.678739 C146.211931,143.678739 147.104382,144.676755 147.104382,145.907894 C147.104382,147.138403 146.211931,148.13453 145.108719,148.13453 L124.360959,148.13453 C123.258372,148.13453 122.365296,147.138403 122.365296,145.907894 L122.365296,145.907894 Z" id="Stroke-8" stroke="#929292"></path>
                    <path d="M125,168 L144,168 L144,188 L125,188 L125,168 Z" id="Fill-9" fill="#C8C8C8"></path>
                </g>
            </g>
        </g>
    </g>
</svg>