<?xml version="1.0" encoding="UTF-8" standalone="no"?>
<svg width="77px" height="59px" viewBox="0 0 77 59" version="1.1" xmlns="http://www.w3.org/2000/svg" xmlns:xlink="http://www.w3.org/1999/xlink" xmlns:sketch="http://www.bohemiancoding.com/sketch/ns">
    <!-- Generator: Sketch 3.3.3 (12072) - http://www.bohemiancoding.com/sketch -->
    <title></title>
    <desc>Created with Sketch.</desc>
    <defs></defs>
    <g id="Shopify-Redesign" stroke="none" stroke-width="1" fill="none" fill-rule="evenodd" sketch:type="MSPage">
        <g id="Desktop-HD" sketch:type="MSArtboardGroup" transform="translate(-468.000000, -1138.000000)" fill="#CCC">
            <g id="Content-1---Process" sketch:type="MSLayerGroup" transform="translate(140.000000, 894.000000)">
                <path d="M402.66204,277.324777 L368.831473,301.61921 C367.480322,302.539741 365.904004,303 364.102469,303 C362.33558,303 360.776583,302.539741 359.425432,301.61921 L355.527902,298.820313 C354.211396,297.874902 353.553153,296.742915 353.553153,295.424316 C353.553153,294.105718 354.211396,292.973731 355.527902,292.02832 L370.754255,281.093959 L334.169434,281.093959 C332.367899,281.093959 330.904175,280.627481 329.778216,279.69451 C328.652257,278.76154 328.089286,277.635772 328.089286,276.317174 L328.089286,271.540388 C328.089286,270.221789 328.652257,269.096022 329.778216,268.163051 C330.904175,267.23008 332.367899,266.763602 334.169434,266.763602 L370.754255,266.763602 L355.527902,255.791922 C354.211396,254.896271 353.553153,253.776723 353.553153,252.433245 C353.553153,251.089767 354.211396,249.970219 355.527902,249.074568 L359.425432,246.27567 C360.741938,245.330259 362.300935,244.857561 364.102469,244.857561 C365.938649,244.857561 367.514967,245.330259 368.831473,246.27567 L402.66204,270.570103 C403.943901,271.440876 404.584821,272.560424 404.584821,273.928781 C404.584821,275.272258 403.943901,276.404246 402.66204,277.324777 Z" id="" sketch:type="MSShapeGroup"></path>
            </g>
        </g>
    </g>
</svg>