<?xml version="1.0" encoding="UTF-8" standalone="no"?>
<svg width="70px" height="59px" viewBox="0 0 70 59" version="1.1" xmlns="http://www.w3.org/2000/svg" xmlns:xlink="http://www.w3.org/1999/xlink" xmlns:sketch="http://www.bohemiancoding.com/sketch/ns">
    <!-- Generator: Sketch 3.3.3 (12072) - http://www.bohemiancoding.com/sketch -->
    <title>windy9</title>
    <desc>Created with Sketch.</desc>
    <defs></defs>
    <g id="Shopify-Redesign" stroke="none" stroke-width="1" fill="none" fill-rule="evenodd" sketch:type="MSPage">
        <g id="Desktop-HD" sketch:type="MSArtboardGroup" transform="translate(-261.000000, -1132.000000)" fill="#6AA9D0">
            <g id="Content-1---Process" sketch:type="MSLayerGroup" transform="translate(140.000000, 894.000000)">
                <g id="windy9" transform="translate(121.000000, 238.000000)" sketch:type="MSShapeGroup">
                    <path d="M60.5556757,19.5318919 C60.5556757,13.8259459 55.9072973,9.17756757 50.2013514,9.17756757 C44.4972973,9.17756757 39.847027,13.8183784 39.847027,19.5243243 C39.847027,21.157027 41.1713514,22.4718919 42.8040541,22.4718919 C44.4367568,22.4718919 45.7610811,21.1494595 45.7610811,19.5243243 C45.7610811,17.0705405 47.7475676,15.0745946 50.2013514,15.0745946 C52.6551351,15.0745946 54.6510811,17.0705405 54.6510811,19.5243243 C54.6510811,22.7764865 52.0043243,25.4213514 48.7540541,25.4213514 L2.95513514,25.4213514 C1.32243243,25.4213514 0,26.7513514 0,28.3840541 C0,30.0186486 1.32243243,31.3486486 2.95513514,31.3486486 L48.7540541,31.3486486 C55.2564865,31.3486486 60.5556757,26.0418919 60.5556757,19.5318919 L60.5556757,19.5318919 Z" id="Fill-1"></path>
                    <path d="M2.2172973,19.3389189 L18.6237838,19.3389189 C24.1594595,19.3389189 28.6583784,14.822973 28.6583784,9.28918919 C28.6583784,4.46297297 24.7345946,0.524054054 19.9083784,0.524054054 C15.0840541,0.524054054 11.1583784,4.44783784 11.1583784,9.27405405 C11.1583784,10.4924324 12.1497297,11.4837838 13.3681081,11.4837838 C14.5959459,11.4837838 15.5854054,10.4924324 15.5854054,9.26648649 C15.5854054,6.88648649 17.5227027,4.95108108 19.9083784,4.95108108 C22.2883784,4.95108108 24.2256757,6.89405405 24.2256757,9.28162162 C24.2256757,12.3710811 21.7132432,14.8967568 18.6237838,14.8967568 L2.2172973,14.8967568 C0.989459459,14.8967568 0,15.8956757 0,17.1140541 C0,18.3418919 0.989459459,19.3389189 2.2172973,19.3389189 L2.2172973,19.3389189 Z" id="Fill-2"></path>
                    <path d="M57.6137838,36.4983784 L14.7662162,36.4983784 C13.1391892,36.4983784 11.8167568,37.8302703 11.8167568,39.462973 C11.8167568,41.0881081 13.1391892,42.4256757 14.7662162,42.4256757 L57.6137838,42.4256757 C60.8659459,42.4256757 63.5108108,45.0572973 63.5108108,48.3094595 C63.5108108,50.7556757 61.5167568,52.7421622 59.062973,52.7421622 C56.6167568,52.7421622 54.6208108,50.7481081 54.6208108,48.3018919 C54.6208108,46.6672973 53.2983784,45.3448649 51.6656757,45.3448649 C50.0310811,45.3448649 48.7086486,46.6672973 48.7086486,48.3018919 C48.7086486,54.0059459 53.357027,58.6467568 59.062973,58.6467568 C64.767027,58.6467568 69.4154054,54.0059459 69.4154054,48.3018919 C69.4154054,41.79 64.1256757,36.4983784 57.6137838,36.4983784 L57.6137838,36.4983784 Z" id="Fill-3"></path>
                </g>
            </g>
        </g>
    </g>
</svg>